<svg width="24px" height="24px" viewBox="0 0 0.72 0.72" fill="none" xmlns="http://www.w3.org/2000/svg"><path d="M0.57 0.36V0.18a0.09 0.09 0 0 0 -0.09 -0.09H0.24a0.09 0.09 0 0 0 -0.09 0.09v0.36a0.09 0.09 0 0 0 0.09 0.09h0.06" stroke="#fff" stroke-width="0.06" stroke-linecap="round"/><path d="M0.48 0.09h-0.003c-0.028 0 -0.05 0.022 -0.05 0.05 0 0.006 -0.004 0.01 -0.01 0.01H0.303a0.01 0.01 0 0 1 -0.01 -0.01C0.293 0.112 0.271 0.09 0.243 0.09H0.24" stroke="#fff" stroke-width="0.06"/><path d="M0.57 0.54a0.09 0.09 0 1 1 -0.18 0 0.09 0.09 0 0 1 0.18 0Z" stroke="#fff" stroke-width="0.06"/></svg>