<svg fill="#ffffff" width="24px" height="24px" viewBox="-0.06 -0.12 0.72 0.72" xmlns="http://www.w3.org/2000/svg" preserveAspectRatio="xMinYMin" class="jam jam-crown"><path d="M0.083 0.153 0.109 0.33h0.382l0.026 -0.179 -0.105 0.091 -0.113 -0.145 -0.117 0.144zm0.301 -0.046 -0.002 0.002 0.004 0 0.035 0.045 0.043 -0.037 0.004 0 -0.002 -0.002 0.072 -0.063a0.03 0.03 0 0 1 0.049 0.027L0.543 0.39H0.058L0.012 0.081a0.03 0.03 0 0 1 0.049 -0.027L0.13 0.115l-0.002 0.002 0.003 0 0.043 0.038 0.036 -0.045 0.003 0 -0.002 -0.002L0.277 0.029a0.03 0.03 0 0 1 0.047 0.001zM0.06 0.42h0.48v0.03a0.03 0.03 0 0 1 -0.03 0.03H0.09a0.03 0.03 0 0 1 -0.03 -0.03z"/></svg>